<svg width="925" height="187" viewBox="0 0 925 187" fill="none" xmlns="http://www.w3.org/2000/svg">
<path d="M1.78711 142.184L78.4406 186.199L103.992 142.184H1.78711Z" fill="black"/>
<path d="M80.4966 60.3772L52.8906 76.205V107.95L80.4966 123.777L108.192 107.95V76.205L80.4966 60.3772Z" fill="black"/>
<path d="M0.892578 45.2605L25.193 87.3198L73.9725 3.29004L0.892578 45.2605Z" fill="black"/>
<path d="M56.998 41.9704H154.378L81.3878 0L56.998 41.9704Z" fill="black"/>
<path d="M112.301 46.7722L160.991 130.802V46.7722H112.301Z" fill="black"/>
<path d="M135.706 96.8342L112.299 137.382L111.585 138.538L87.1055 180.864L160.096 138.894L135.706 96.8342Z" fill="black"/>
<path d="M0 137.382H48.6902L0 53.3523V137.382Z" fill="black"/>
<path d="M248.012 140.154C222.281 140.154 204.186 119.749 204.186 92.5769C204.186 65.405 221.967 45 247.594 45C268.932 45 286.086 58.7421 289.119 79.9799H273.429C270.919 65.5091 261.819 57.4928 248.117 57.4928C231.172 57.4928 220.084 71.235 220.084 92.5769C220.084 113.919 231.486 127.661 249.058 127.661C262.237 127.661 271.756 119.436 274.057 105.278H289.747C286.504 126.412 269.245 140.05 247.907 140.05L248.012 140.154Z" fill="black"/>
<path d="M327.193 140.154C306.691 140.154 294.244 123.393 294.244 105.382C294.244 87.3716 306.796 70.6104 327.193 70.6104C347.589 70.6104 360.141 87.3716 360.141 105.382C360.141 123.393 347.589 140.154 327.193 140.154ZM327.193 129.327C338.489 129.327 344.765 119.541 344.765 105.382C344.765 91.2235 338.489 81.4375 327.193 81.4375C315.896 81.4375 309.725 91.1194 309.725 105.382C309.725 119.645 316.105 129.327 327.193 129.327Z" fill="black"/>
<path d="M369.031 138.8V71.8595H383.257V84.977H383.57C386.395 75.6073 393.403 70.5061 403.235 70.5061C418.088 70.5061 425.305 80.5004 425.305 95.2836V138.8H410.661V99.5519C410.661 87.0591 406.268 81.4373 397.168 81.4373C388.068 81.4373 383.675 87.5796 383.675 98.615V138.8H369.031Z" fill="black"/>
<path d="M462.543 140.154C444.134 140.154 434.197 128.182 433.256 115.897H447.795C448.632 124.434 455.431 129.327 462.752 129.327C469.342 129.327 475.513 126.412 475.513 120.582C475.513 116.834 472.375 113.711 464.635 112.045L455.535 110.067C442.356 107.256 434.511 100.905 434.511 90.3907C434.511 78.2102 446.331 70.6104 460.765 70.6104C476.664 70.6104 487.961 79.5636 488.902 91.7441H474.363C473.421 83.9361 467.355 81.4375 460.765 81.4375C454.175 81.4375 449.364 84.2484 449.364 89.2455C449.364 93.618 453.129 95.1796 461.707 97.1576L470.911 99.1357C485.45 102.363 490.262 109.546 490.262 119.645C490.262 132.658 478.128 140.258 462.648 140.258L462.543 140.154Z" fill="black"/>
<path d="M518.606 138.8C508.147 138.8 502.708 133.803 502.708 124.017V82.6868H491.516V71.8596H502.708V56.5559H517.351V71.8596H533.355V82.6868H517.351V120.686C517.351 126.308 519.339 127.869 524.464 127.869H532.832V138.696H518.606V138.8Z" fill="black"/>
<path d="M567.14 140.154C547.057 140.154 535.342 123.809 535.342 105.382C535.342 86.9551 546.743 70.6104 566.826 70.6104C586.909 70.6104 600.088 86.851 597.996 110.067H549.986C550.613 122.247 557.83 129.327 567.976 129.327C576.763 129.327 580.528 123.393 582.097 118.083H596.741C593.917 131.305 583.457 140.154 567.035 140.154H567.14ZM550.195 99.1357H583.457C582.515 88.3085 576.763 81.3334 566.93 81.3334C557.098 81.3334 551.241 88.3085 550.299 99.1357H550.195Z" fill="black"/>
<path d="M606.992 46.3535H621.636V138.8H606.992V46.3535Z" fill="black"/>
<path d="M634.293 46.3535H648.937V138.8H634.293V46.3535Z" fill="black"/>
<path d="M681.153 140.154C667.137 140.154 657.305 131.409 657.305 119.228C657.305 105.382 669.438 100.385 684.396 98.7191L701.445 96.9493V94.9712C701.445 86.018 696.32 81.3332 687.847 81.3332C679.375 81.3332 674.773 85.4975 674.354 92.9932H659.71C660.233 79.9798 670.693 70.5061 688.057 70.5061C705.42 70.5061 716.089 79.6675 716.089 97.678V138.8H701.968V125.683H701.55C698.726 134.948 691.194 140.154 681.048 140.154H681.153ZM684.919 129.327C695.378 129.327 701.445 122.247 701.445 109.546V107.256L686.801 108.922C677.91 109.859 672.785 113.086 672.785 119.54C672.785 125.995 678.433 129.431 684.919 129.431V129.327Z" fill="black"/>
<path d="M747.886 138.8C737.426 138.8 731.987 133.803 731.987 124.017V82.6868H720.795V71.8596H731.987V56.5559H746.631V71.8596H762.634V82.6868H746.631V120.686C746.631 126.308 748.618 127.869 753.743 127.869H762.111V138.696H747.886V138.8Z" fill="black"/>
<path d="M769.014 61.2408V46.3535H784.599V61.2408H769.014ZM769.432 138.8V71.8597H784.076V138.8H769.432Z" fill="black"/>
<path d="M825.915 140.154C805.414 140.154 792.967 123.393 792.967 105.382C792.967 87.3716 805.519 70.6104 825.915 70.6104C846.312 70.6104 858.864 87.3716 858.864 105.382C858.864 123.393 846.312 140.154 825.915 140.154ZM825.915 129.327C837.212 129.327 843.488 119.541 843.488 105.382C843.488 91.2235 837.212 81.4375 825.915 81.4375C814.619 81.4375 808.447 91.1194 808.447 105.382C808.447 119.645 814.828 129.327 825.915 129.327Z" fill="black"/>
<path d="M867.859 138.8V71.8595H882.085V84.977H882.398C885.223 75.6073 892.231 70.5061 902.063 70.5061C916.916 70.5061 924.133 80.5004 924.133 95.2836V138.8H909.489V99.5519C909.489 87.0591 905.096 81.4373 895.996 81.4373C886.896 81.4373 882.503 87.5796 882.503 98.615V138.8H867.859Z" fill="black"/>
</svg>
