<svg width="1716" height="224" viewBox="0 0 1716 224" fill="none" xmlns="http://www.w3.org/2000/svg">
<path fill-rule="evenodd" clip-rule="evenodd" d="M195.719 141.487L266.083 179.227L195.719 216.967L125.355 179.227L195.719 141.487Z" fill="#403FE9"/>
<path fill-rule="evenodd" clip-rule="evenodd" d="M195.718 7.03271L391.424 111.994L304.326 158.723L195.718 100.464L87.0979 158.723L0 111.994L195.718 7.03271Z" fill="#403FE9"/>
<path d="M778.167 220.714H742.25V196C732.949 215.285 715.634 224 694.599 224C657.824 224 639.65 197.428 639.65 154.857V73.2852H675.567V154.571C675.567 178.428 684.869 192.428 704.186 192.428C720.786 192.428 742.107 178.714 742.107 137V73.2852H778.167V220.714Z" fill="#030E25"/>
<path d="M816.23 220.715V10H852.147V220.715H816.23Z" fill="#030E25"/>
<path d="M893.933 220.715V0H929.85V220.715H893.933Z" fill="#030E25"/>
<path d="M993.526 161.001C997.962 178.43 1013.7 191.001 1035.88 191.001C1057.2 191.001 1072.66 181.43 1072.66 165.001C1072.66 153.001 1063.93 144.287 1045.76 137.858L1019.43 128.858C976.498 114.572 969.2 88.5722 969.2 71.4293C969.2 35.5721 999.536 13.4292 1036.88 13.4292C1071.08 13.4292 1095.27 31.1435 1104.57 60.1436L1073.09 73.2865C1066.08 52.5721 1051.77 46.715 1036.88 46.715C1020.28 46.715 1006.55 54.8579 1006.55 70.8579C1006.55 77.8579 1008.55 88.2865 1030.73 96.2865L1057.06 105.858C1096.84 118.429 1109.29 143.429 1109.58 163.572C1109.58 202.858 1075.95 223.858 1036.6 223.858C996.531 223.858 965.05 201.43 959.469 168.43L993.526 161.001Z" fill="#030E25"/>
<path d="M1395.63 73.2857V220.858H1359.71V198.572C1349.26 214.572 1330.8 224 1309.2 224C1265.41 224 1236.79 189.572 1236.79 146.429C1236.79 104.714 1264.26 70 1309.48 70C1329.37 70 1347.69 78.1429 1359.71 95.0001V73.2857H1395.63ZM1316.49 194C1340.96 194 1360.57 177.429 1360.57 148.286C1360.57 119.714 1342.11 100.143 1315.64 100.143C1288.45 100.143 1272.99 121.429 1272.99 146.714C1272.99 173 1289.59 194 1316.49 194Z" fill="#030E25"/>
<path d="M1192.57 194C1182.13 194 1178.26 187 1178.26 178V100.714H1222.34V73.2856H1178.26V33.8569H1150.5L1144.06 73.1427H1119.31V100.571H1142.35V172.857C1142.35 213.429 1166.53 223.857 1191.14 223.857C1205.88 223.857 1217.04 219.714 1224.63 213.143L1211.61 189.429C1211.61 189.429 1201.45 194 1192.57 194Z" fill="#030E25"/>
<path d="M503.424 10V220.715H540.772V129H579.407L610.316 98.1431H540.772V42.8572H631.923V10H503.424Z" fill="#030E25"/>
<path d="M1527.13 166.144C1521.69 182.715 1507.38 191.001 1490.92 191.001C1468.46 191.001 1451.72 173.001 1451.72 146.144C1451.72 119.286 1468.46 101.286 1490.92 101.286C1508.24 101.286 1522.98 109.572 1527.13 126.144H1565.19C1559.61 91.4293 1529.7 68.4292 1490.92 68.4292C1447.85 68.4292 1415.8 100.429 1415.8 146.144C1415.8 191.858 1447.85 223.858 1490.92 223.858C1529.7 223.858 1559.9 201.001 1565.33 166.144H1527.13Z" fill="#030E25"/>
<path d="M1715.43 220.715L1656.63 140.857L1708 77.5716V73.143H1668.22L1621.86 129.857V10H1585.94V220.715H1621.86V149.286L1673.64 220.715H1715.43Z" fill="#030E25"/>
</svg>
