<svg id="Слой_1" data-name="Слой 1" xmlns="http://www.w3.org/2000/svg" viewBox="0 0 688.45 318.78"><path d="M231.73,80.93c10.59-93.38-99.06-66.4-167.37,18.29C145.43-61.74,296.67,4,231.73,80.93Z"/><path d="M35.91,186.72C25.32,280.1,135,253.11,203.28,168.42,122.21,329.38-29,263.65,35.91,186.72Z"/><path d="M186.72,231.73c93.38,10.59,66.39-99.06-18.3-167.37C329.38,145.43,263.65,296.67,186.72,231.73Z"/><path d="M80.93,35.91C-12.45,25.32,14.53,135,99.22,203.28-61.74,122.21,4-29,80.93,35.91Z"/><polygon points="494.36 37.46 431.91 122.04 389.14 122.04 455.81 37.46 494.36 37.46"/><polygon points="405.23 142.26 405.23 230.18 372.83 230.18 372.83 157.9 283.96 37.46 321.98 37.46 389.14 122.04 389.18 122.04 405.23 142.26"/><path d="M530.11,154.41a5.27,5.27,0,0,1,3.64-1.33H652.59a34.1,34.1,0,0,0,18.06-4.94,37.4,37.4,0,0,0,13-13.12A34.77,34.77,0,0,0,688.45,117V73.32a34.61,34.61,0,0,0-4.82-18.21,36.59,36.59,0,0,0-13-12.83,34.84,34.84,0,0,0-18.06-4.82H532.65a34.84,34.84,0,0,0-18.06,4.82,36.51,36.51,0,0,0-13,12.83,34.52,34.52,0,0,0-4.82,18.21V86.18h31.87V74.38a4.87,4.87,0,0,1,1.45-3.6,4.92,4.92,0,0,1,3.64-1.48h118a4.62,4.62,0,0,1,3.34,1.48,4.9,4.9,0,0,1,1.48,3.6v41.51a4.92,4.92,0,0,1-1.48,3.61,4.66,4.66,0,0,1-3.34,1.48H532.65a35.79,35.79,0,0,0-18.06,4.66,35.14,35.14,0,0,0-13,12.87,34.64,34.64,0,0,0-4.82,18.06v73.61H688.45V198.31H533.75a4.94,4.94,0,0,1-5.09-5.09V157.9A4.51,4.51,0,0,1,530.11,154.41Z"/><circle cx="133.82" cy="133.82" r="41.21"/><path d="M372.87,281.75v-27.6h5v27.6Z"/><path d="M383.53,281.75v-27.6h5.56L406,274.31V254.15h5.1v27.6h-5.56l-17-20.2v20.2Z"/><path d="M417.41,281.75v-27.6h25.42v5.1H422.51v6.13h16.33v5.14H422.51v11.23Z"/><path d="M452.22,281.75a5,5,0,0,1-2.66-.73,5.6,5.6,0,0,1-1.94-1.93,5.15,5.15,0,0,1-.73-2.67V259.48a5.12,5.12,0,0,1,.73-2.67,5.6,5.6,0,0,1,1.94-1.93,5,5,0,0,1,2.66-.73h16.95a5,5,0,0,1,2.66.73,5.6,5.6,0,0,1,1.94,1.93,5.12,5.12,0,0,1,.73,2.67v16.94a5.15,5.15,0,0,1-.73,2.67,5.6,5.6,0,0,1-1.94,1.93,5,5,0,0,1-2.66.73Zm.19-5.1H468.9a.48.48,0,0,0,.34-.13.41.41,0,0,0,.16-.33V259.71a.41.41,0,0,0-.16-.33.48.48,0,0,0-.34-.13H452.41a.44.44,0,0,0-.32.13.45.45,0,0,0-.14.33v16.48a.45.45,0,0,0,.14.33A.44.44,0,0,0,452.41,276.65Z"/><path d="M480.63,281.75V254.19h22.23a5.21,5.21,0,0,1,2.69.72,5.57,5.57,0,0,1,1.95,1.94,5,5,0,0,1,.73,2.66V267a5.15,5.15,0,0,1-.73,2.69,5.35,5.35,0,0,1-4.64,2.64l-17.17,0v9.43Zm5.52-14.57h16.48a.61.61,0,0,0,.35-.11.37.37,0,0,0,.15-.31v-7.05a.43.43,0,0,0-.15-.33.51.51,0,0,0-.35-.13H486.15a.44.44,0,0,0-.46.46v7.05a.39.39,0,0,0,.13.31A.52.52,0,0,0,486.15,267.18Zm16.48,14.57-8.31-9.93H501l7.21,8.51v1.42Z"/><path d="M514.17,281.75v-27.6h5.56l10,11.92,10-11.92h5.59v27.6h-5.1V261.51L529.74,274l-10.51-12.42v20.2Z"/><path d="M551.74,259.48a5,5,0,0,1,.73-2.67,5.52,5.52,0,0,1,1.94-1.93,5,5,0,0,1,2.66-.73H574a5.12,5.12,0,0,1,2.68.73,5.57,5.57,0,0,1,2,1.93,5.12,5.12,0,0,1,.72,2.67v22.27h-5.09v-9.28H556.8v9.28h-5.06Zm22.51,7.93v-7.7a.44.44,0,0,0-.16-.33.5.5,0,0,0-.34-.13H557.26a.42.42,0,0,0-.32.13.45.45,0,0,0-.14.33v7.7Z"/><path d="M595.52,281.75v-22.5H584.25v-5.1h27.6v5.1H600.62v22.5Z"/><path d="M616.11,281.75v-27.6h5v27.6Z"/><path d="M632,281.75a5,5,0,0,1-2.67-.73,5.57,5.57,0,0,1-1.93-1.93,5.06,5.06,0,0,1-.73-2.67V259.48a5,5,0,0,1,.73-2.67,5.57,5.57,0,0,1,1.93-1.93,5,5,0,0,1,2.67-.73H649a5,5,0,0,1,2.66.73,5.52,5.52,0,0,1,1.94,1.93,5,5,0,0,1,.73,2.67v16.94a5.06,5.06,0,0,1-.73,2.67,5.52,5.52,0,0,1-1.94,1.93,5,5,0,0,1-2.66.73Zm.19-5.1h16.48a.53.53,0,0,0,.35-.13.43.43,0,0,0,.15-.33V259.71a.43.43,0,0,0-.15-.33.53.53,0,0,0-.35-.13H632.21a.44.44,0,0,0-.46.46v16.48a.44.44,0,0,0,.46.46Z"/><path d="M660.42,281.75v-27.6H666l16.95,20.16V254.15H688v27.6h-5.56l-17-20.2v20.2Z"/><path d="M412.85,318.78v-27.6h22.24a5.12,5.12,0,0,1,2.68.73,5.55,5.55,0,0,1,2,1.93,5.06,5.06,0,0,1,.73,2.67v16.94a5.06,5.06,0,0,1-.73,2.67,5.57,5.57,0,0,1-2,1.94,5.2,5.2,0,0,1-2.68.72Zm5.48-5.09h16.53a.51.51,0,0,0,.34-.14.43.43,0,0,0,.15-.33V296.74a.43.43,0,0,0-.15-.33.5.5,0,0,0-.34-.13H418.33a.42.42,0,0,0-.32.13.45.45,0,0,0-.14.33v16.48a.45.45,0,0,0,.14.33A.43.43,0,0,0,418.33,313.69Z"/><path d="M451.92,318.78a5.12,5.12,0,0,1-2.67-.72,5.81,5.81,0,0,1-1.94-1.94,5.14,5.14,0,0,1-.72-2.67V296.51a5.14,5.14,0,0,1,.72-2.67,5.78,5.78,0,0,1,1.94-1.93,5,5,0,0,1,2.67-.73h16.94a5,5,0,0,1,2.66.73,5.69,5.69,0,0,1,1.94,1.93,5.06,5.06,0,0,1,.73,2.67v16.94a5.06,5.06,0,0,1-.73,2.67,5.72,5.72,0,0,1-1.94,1.94,5.08,5.08,0,0,1-2.66.72Zm.19-5.09h16.48a.54.54,0,0,0,.35-.14.43.43,0,0,0,.15-.33V296.74a.43.43,0,0,0-.15-.33.53.53,0,0,0-.35-.13H452.11a.44.44,0,0,0-.46.46v16.48a.44.44,0,0,0,.13.33A.45.45,0,0,0,452.11,313.69Z"/><path d="M480.32,318.78v-27.6h5.56l10,11.92,10-11.92h5.6v27.6h-5.1V298.54L495.89,311l-10.51-12.42v20.2Z"/><path d="M517.28,318.78v-27.6h5v27.6Z"/><path d="M527.93,318.78v-27.6h5.56l17,20.17V291.18h5.1v27.6H550l-17-20.2v20.2Z"/><path d="M561.82,296.51a5.06,5.06,0,0,1,.73-2.67,5.6,5.6,0,0,1,1.94-1.93,5,5,0,0,1,2.66-.73h16.91a5.12,5.12,0,0,1,2.68.73,5.66,5.66,0,0,1,2,1.93,5.14,5.14,0,0,1,.72,2.67v22.27h-5.09V309.5H566.88v9.28h-5.06Zm22.51,7.93v-7.7a.44.44,0,0,0-.16-.33.5.5,0,0,0-.34-.13H567.34a.42.42,0,0,0-.32.13.45.45,0,0,0-.14.33v7.7Z"/><path d="M595.71,318.78v-27.6h5.56l16.94,20.17V291.18h5.1v27.6h-5.55l-17-20.2v20.2Z"/><path d="M634.85,318.78a5.08,5.08,0,0,1-2.66-.72,5.72,5.72,0,0,1-1.94-1.94,5.15,5.15,0,0,1-.73-2.67V296.51a5.15,5.15,0,0,1,.73-2.67,5.69,5.69,0,0,1,1.94-1.93,5,5,0,0,1,2.66-.73h22.2v5.1H635.93a1.36,1.36,0,0,0-1,.34,1.3,1.3,0,0,0-.37,1v14.72a1.3,1.3,0,0,0,.37,1,1.34,1.34,0,0,0,1,.37h21.12v5.09Z"/><path d="M663,318.78v-27.6h25.42v5.1H668.13v6.13h16.33v5.14H668.13v6.14h20.32v5.09Z"/></svg>