<?xml version="1.0" encoding="utf-8" standalone="yes"?>
<!DOCTYPE svg PUBLIC "-//W3C//DTD SVG 1.1//EN" "http://www.w3.org/Graphics/SVG/1.1/DTD/svg11.dtd">
<svg width="768" height="552" viewBox="0 0 768 552" style="fill:none;stroke:none;fill-rule:evenodd;clip-rule:evenodd;stroke-linecap:round;stroke-linejoin:round;stroke-miterlimit:1.5;" version="1.1" xmlns="http://www.w3.org/2000/svg" xmlns:xlink="http://www.w3.org/1999/xlink"><style class="text-font-style fontImports" data-font-family="Roboto">@import url('https://fonts.googleapis.com/css2?family=Roboto:wght@400;700&amp;display=block');</style><g id="items" style="isolation: isolate"><g id="blend" style="mix-blend-mode: normal"><g id="g-root-cp_0_g-0_hx62wjzkl43w-fill" data-item-order="-328309" transform="translate(254, 182)"></g><g id="g-root-cp_4_g-4_hx62wjzkl43y-fill" data-item-order="-328305" transform="translate(182, 110)"></g><g id="g-root-cp_3_g-3_dhcks3zkl4w8-fill" data-item-order="-328299" transform="translate(182, 326)"></g><g id="g-root-cp_2_g-2_dhcks3zkl4wa-fill" data-item-order="-328293" transform="translate(398, 326)"></g><g id="g-root-cp_1_g-1_dhcks3zkl4wc-fill" data-item-order="-328287" transform="translate(398, 110)"></g><g id="g-root-tx_foundati_1lw633nzkl5hd-fill" data-item-order="0" transform="translate(134, 38)"><g id="tx_foundati_1lw633nzkl5hd-fill" stroke="none" fill="#000000"><g><text style="font: bold 25px Roboto, sans-serif; white-space: pre;" font-weight="bold" font-size="25px" font-family="Roboto, sans-serif"><tspan x="15.44" y="42" dominant-baseline="ideographic">Foundations of Decentralized Governance</tspan></text></g></g></g><g id="g-root-tx_communit_18fps1fzkwcng-fill" data-item-order="0" transform="translate(590, 98)"><g id="tx_communit_18fps1fzkwcng-fill" stroke="none" fill="#000000"><g><text style="font: bold 20px Roboto, sans-serif; white-space: pre;" font-weight="bold" font-size="20px" font-family="Roboto, sans-serif"><tspan x="12" y="34" dominant-baseline="ideographic">Community-</tspan><tspan x="12" y="58" dominant-baseline="ideographic">Driven </tspan><tspan x="12" y="82" dominant-baseline="ideographic">Approach</tspan></text></g></g></g><g id="g-root-tx_democrat_4gprubzkwc21-fill" data-item-order="0" transform="translate(50, 116)"><g id="tx_democrat_4gprubzkwc21-fill" stroke="none" fill="#000000"><g><text style="font: bold 20px Roboto, sans-serif; white-space: pre;" font-weight="bold" font-size="20px" font-family="Roboto, sans-serif"><tspan x="12.95" y="34" dominant-baseline="ideographic">Democratic </tspan><tspan x="33.94" y="58" dominant-baseline="ideographic">Inclusion</tspan></text></g></g></g><g id="g-root-ic_prot_m8m9f7zkuyh8-fill" data-item-order="0" transform="translate(224, 152)"></g><g id="g-root-ic_sett_18lc1tfzkl3wl-fill" data-item-order="0" transform="translate(476, 152)"></g><g id="g-root-tx_promotes_w9pvzkwcua-fill" data-item-order="0" transform="translate(38, 176)"><g id="tx_promotes_w9pvzkwcua-fill" stroke="none" fill="#000000"><g><text style="font: 15px Roboto, sans-serif; white-space: pre;" font-size="15px" font-family="Roboto, sans-serif"><tspan x="22.45" y="31" dominant-baseline="ideographic">Promotes equal </tspan><tspan x="15.31" y="49" dominant-baseline="ideographic">participation and </tspan><tspan x="27.38" y="67" dominant-baseline="ideographic">representation.</tspan></text></g></g></g><g id="g-root-tx_emphasiz_18fps1fzkwcnh-fill" data-item-order="0" transform="translate(590, 182)"><g id="tx_emphasiz_18fps1fzkwcnh-fill" stroke="none" fill="#000000"><g><text style="font: 15px Roboto, sans-serif; white-space: pre;" font-size="15px" font-family="Roboto, sans-serif"><tspan x="12" y="28" dominant-baseline="ideographic">Emphasizes </tspan><tspan x="12" y="46" dominant-baseline="ideographic">collective decision-</tspan><tspan x="12" y="64" dominant-baseline="ideographic">making and </tspan><tspan x="12" y="82" dominant-baseline="ideographic">participation.</tspan></text></g></g></g><g id="g-root-tx_decentra_1d15jxvzkl34b-fill" data-item-order="0" transform="translate(308, 278)"><g id="tx_decentra_1d15jxvzkl34b-fill" stroke="none" fill="#000000"><g><text style="font: bold 20px Roboto, sans-serif; white-space: pre;" font-weight="bold" font-size="20px" font-family="Roboto, sans-serif"><tspan x="11.81" y="34" dominant-baseline="ideographic">Decentralized </tspan><tspan x="19.88" y="58" dominant-baseline="ideographic">Governance</tspan></text></g></g></g><g id="g-root-tx_innovati_1q6dbg3zkwdfw-fill" data-item-order="0" transform="translate(50, 380)"><g id="tx_innovati_1q6dbg3zkwdfw-fill" stroke="none" fill="#000000"><g><text style="font: bold 20px Roboto, sans-serif; white-space: pre;" font-weight="bold" font-size="20px" font-family="Roboto, sans-serif"><tspan x="21.33" y="34" dominant-baseline="ideographic">Innovation</tspan></text></g></g></g><g id="g-root-tx_transpar_1lr6aerzkwb2g-fill" data-item-order="0" transform="translate(590, 374)"><g id="tx_transpar_1lr6aerzkwb2g-fill" stroke="none" fill="#000000"><g><text style="font: bold 20px Roboto, sans-serif; white-space: pre;" font-weight="bold" font-size="20px" font-family="Roboto, sans-serif"><tspan x="12" y="34" dominant-baseline="ideographic">Transparency</tspan></text></g></g></g><g id="g-root-tx_fostersn_1q6dbg3zkwdfx-fill" data-item-order="0" transform="translate(26, 416)"><g id="tx_fostersn_1q6dbg3zkwdfx-fill" stroke="none" fill="#000000"><g><text style="font: 15px Roboto, sans-serif; white-space: pre;" font-size="15px" font-family="Roboto, sans-serif"><tspan x="18.95" y="31" dominant-baseline="ideographic">Fosters new ideas </tspan><tspan x="21.63" y="49" dominant-baseline="ideographic">and technological </tspan><tspan x="37.97" y="67" dominant-baseline="ideographic">advancements.</tspan></text></g></g></g><g id="g-root-ic_idea_hssrarzknymm-fill" data-item-order="0" transform="translate(224, 404)"></g><g id="g-root-ic_next_1430ncjzkuy32-fill" data-item-order="0" transform="translate(476, 404)"></g><g id="g-root-tx_ensureso_1hbcsabzkwbup-fill" data-item-order="0" transform="translate(590, 410)"><g id="tx_ensureso_1hbcsabzkwbup-fill" stroke="none" fill="#000000"><g><text style="font: 15px Roboto, sans-serif; white-space: pre;" font-size="15px" font-family="Roboto, sans-serif"><tspan x="12" y="28" dominant-baseline="ideographic">Ensures open and </tspan><tspan x="12" y="46" dominant-baseline="ideographic">accessible </tspan><tspan x="12" y="64" dominant-baseline="ideographic">information for all </tspan><tspan x="12" y="82" dominant-baseline="ideographic">stakeholders.</tspan></text></g></g></g><g id="g-root-cp_0_g-0_hx62wjzkl43w-stroke" data-item-order="-328309" transform="translate(254, 182)"><g id="cp_0_g-0_hx62wjzkl43w-stroke" fill="none" stroke-linecap="round" stroke-linejoin="round" stroke-miterlimit="4" stroke="#000000" stroke-width="1"><g><path d="M 250 130C 250 196.2742 196.2742 250 130 250C 63.7258 250 10 196.2742 10 130C 10 63.7258 63.7258 10 130 10C 196.2742 10 250 63.7258 250 130Z"></path></g></g></g><g id="g-root-cp_4_g-4_hx62wjzkl43y-stroke" data-item-order="-328305" transform="translate(182, 110)"><g id="cp_4_g-4_hx62wjzkl43y-stroke" fill="none" stroke-linecap="round" stroke-linejoin="round" stroke-miterlimit="4" stroke="#000000" stroke-width="1"><g><path d="M 10 94C 10 47.6081 47.6081 10 94 10C 137.1832 10 172.7555 42.5856 177.4698 84.5093C 130.8792 94.1869 94.1869 130.8792 84.5093 177.4698C 42.5856 172.7555 10 137.1832 10 94ZM 177.999977 94.000466C 177.999977 140.392366 140.391877 178.000466 93.999977 178.000466C 90.791177 178.000466 87.624477 177.820566 84.509277 177.470266C 94.186877 130.879666 130.879177 94.187366 177.469777 84.509766C 177.820077 87.624966 177.999977 90.791666 177.999977 94.000466Z"></path></g></g></g><g id="g-root-cp_3_g-3_dhcks3zkl4w8-stroke" data-item-order="-328299" transform="translate(182, 326)"><g id="cp_3_g-3_dhcks3zkl4w8-stroke" fill="none" stroke-linecap="round" stroke-linejoin="round" stroke-miterlimit="4" stroke="#000000" stroke-width="1"><g><path d="M 94 177.999097C 47.6081 177.999097 10 140.390997 10 93.999097C 10 50.815897 42.5856 15.243497 84.5093 10.529297C 94.1869 57.119897 130.8792 93.812197 177.4698 103.489797C 172.7555 145.413497 137.1832 177.999097 94 177.999097ZM 178.000015 94C 178.000015 47.6081 140.391915 10 94.000015 10C 90.791215 10 87.624515 10.1799 84.509315 10.5302C 94.186915 57.1208 130.879215 93.8131 177.469815 103.4907C 177.820115 100.3755 178.000015 97.2088 178.000015 94Z"></path></g></g></g><g id="g-root-cp_2_g-2_dhcks3zkl4wa-stroke" data-item-order="-328293" transform="translate(398, 326)"><g id="cp_2_g-2_dhcks3zkl4wa-stroke" fill="none" stroke-linecap="round" stroke-linejoin="round" stroke-miterlimit="4" stroke="#000000" stroke-width="1"><g><path d="M 178.000073 93.999097C 178.000073 140.390997 140.391973 177.999097 94.000073 177.999097C 50.816873 177.999097 15.244473 145.413497 10.530273 103.489797C 57.120873 93.812197 93.813173 57.119897 103.490773 10.529297C 145.414473 15.243497 178.000073 50.815897 178.000073 93.999097ZM 10 94C 10 47.6081 47.6081 10 94 10C 97.2088 10 100.3755 10.1799 103.4907 10.5302C 93.8131 57.1208 57.1208 93.8131 10.5302 103.4907C 10.1799 100.3755 10 97.2088 10 94Z"></path></g></g></g><g id="g-root-cp_1_g-1_dhcks3zkl4wc-stroke" data-item-order="-328287" transform="translate(398, 110)"><g id="cp_1_g-1_dhcks3zkl4wc-stroke" fill="none" stroke-linecap="round" stroke-linejoin="round" stroke-miterlimit="4" stroke="#000000" stroke-width="1"><g><path d="M 178.000012 94C 178.000012 47.6081 140.391912 10 94.000012 10C 50.816812 10 15.244412 42.5856 10.530212 84.5093C 57.120812 94.1869 93.813112 130.8792 103.490712 177.4698C 145.414412 172.7555 178.000012 137.1832 178.000012 94ZM 94 178.000466C 47.6081 178.000466 10 140.392366 10 94.000466C 10 90.791666 10.1799 87.624966 10.5302 84.509766C 57.1208 94.187366 93.8131 130.879666 103.4907 177.470266C 100.3755 177.820566 97.2088 178.000466 94 178.000466Z"></path></g></g></g><g id="g-root-tx_foundati_1lw633nzkl5hd-stroke" data-item-order="0" transform="translate(134, 38)"></g><g id="g-root-tx_communit_18fps1fzkwcng-stroke" data-item-order="0" transform="translate(590, 98)"></g><g id="g-root-tx_democrat_4gprubzkwc21-stroke" data-item-order="0" transform="translate(50, 116)"></g><g id="g-root-ic_prot_m8m9f7zkuyh8-stroke" data-item-order="0" transform="translate(224, 152)"><g id="ic_prot_m8m9f7zkuyh8-stroke" fill="none" stroke-linecap="round" stroke-linejoin="round" stroke-miterlimit="4" stroke="#000000" stroke-width="1"><g><path d="M 10.49 11.036L 26.49 11.036L 26.49 27.035999L 10.49 27.035999M 56.490002 13.036L 42.490002 13.036L 42.490002 27.035999L 56.490002 27.035999M 27.49 39.035999C 27.49 42.349709 30.176292 45.035999 33.489998 45.035999C 36.803711 45.035999 39.489998 42.349709 39.489998 39.036003C 39.489998 35.72229 36.803711 33.036003 33.489998 33.036003C 30.176292 33.036003 27.49 35.72229 27.49 39.036003M 26.49 57.035999L 26.49 52.035999C 26.490002 48.17001 29.624008 45.036003 33.490002 45.036003C 37.355995 45.036003 40.490002 48.17001 40.490002 52.036003L 40.489998 57.035999M 13.49 27.035999L 13.49 38.784M 16.49 41.784L 16.49 41.784ZM 16.49 57.035999L 16.49 51.035999C 13.005162 49.218407 10.728079 45.707146 10.49 41.784C 10.475088 40.127148 11.806146 38.771912 13.463 38.757004C 15.119854 38.742088 16.475088 40.073147 16.49 41.730003C 16.512001 42.153999 16.860001 45.529999 22.218 46.874001M 23.49 41.035999C 21.280861 41.035999 19.49 39.24514 19.49 37.035999C 19.49 34.826859 21.280861 33.035999 23.49 33.035999C 24.022392 33.034695 24.549576 33.140812 25.040001 33.348M 53.490002 27.035999L 53.490002 38.784M 50.470001 41.784L 50.470001 41.784ZM 50.490002 57.035999L 50.490002 51.035999C 53.974838 49.218407 56.251923 45.707146 56.490002 41.784C 56.504913 40.127148 55.173859 38.771912 53.517002 38.757004C 51.860149 38.742088 50.504913 40.073147 50.490002 41.730003C 50.467999 42.153999 50.119999 45.529999 44.759998 46.874001M 43.490002 41.035999C 45.110069 41.0355 46.569851 40.057835 47.18708 38.559952C 47.804306 37.062069 47.457073 35.339798 46.307671 34.19809C 45.158268 33.056381 43.433704 32.720726 41.940002 33.348"></path></g></g></g><g id="g-root-ic_sett_18lc1tfzkl3wl-stroke" data-item-order="0" transform="translate(476, 152)"><g id="ic_sett_18lc1tfzkl3wl-stroke" fill="none" stroke-linecap="round" stroke-linejoin="round" stroke-miterlimit="4" stroke="#000000" stroke-width="1"><g><path d="M 32 37C 32 38.104568 32.895432 39 34 39C 35.104568 39 36 38.104568 36 37C 36 35.895432 35.104568 35 34 35C 32.895432 35 32 35.895432 32 37ZM 35.697998 29.264L 36.288002 31.200001C 36.490089 31.867315 37.174461 32.26413 37.854 32.108002L 39.816002 31.652C 40.579586 31.48052 41.365868 31.826136 41.755825 32.504662C 42.145782 33.183189 42.048573 34.03656 41.515999 34.610001L 40.141998 36.091999C 39.66832 36.604668 39.66832 37.395332 40.141998 37.908001L 41.515999 39.389999C 42.048573 39.96344 42.145782 40.816811 41.755825 41.495338C 41.365868 42.173862 40.579586 42.519482 39.816002 42.348L 37.854 41.891998C 37.174461 41.73587 36.490089 42.132687 36.288002 42.799999L 35.697998 44.736C 35.4762 45.490139 34.784081 46.008015 33.998001 46.008015C 33.211922 46.008015 32.519798 45.490139 32.298 44.736L 31.708 42.799999C 31.505909 42.132687 30.821539 41.73587 30.142 41.891998L 28.18 42.348C 27.416416 42.519482 26.630133 42.173862 26.240175 41.495338C 25.850216 40.816811 25.947426 39.96344 26.48 39.389999L 27.854 37.908001C 28.327679 37.395332 28.327679 36.604668 27.854 36.092003L 26.48 34.610001C 25.947426 34.03656 25.850216 33.183189 26.240175 32.504662C 26.630133 31.826136 27.416416 31.48052 28.18 31.652L 30.142 32.108002C 30.821539 32.26413 31.505909 31.867315 31.708 31.200001L 32.298 29.264C 32.519798 28.509859 33.211922 27.991983 33.998001 27.991983C 34.784081 27.991983 35.4762 28.509859 35.697998 29.264ZM 30.5 14.5C 30.500002 16.432997 32.067005 18 34 18C 35.932999 18 37.5 16.432997 37.5 14.5C 37.5 12.567003 35.932999 11 34 11C 32.067005 11 30.500002 12.567003 30.500002 14.5ZM 41 25C 40.184052 21.800182 37.302212 19.560986 34 19.560986C 30.697788 19.560986 27.815947 21.800182 27 25M 46.5 46.5C 46.5 48.432999 48.067005 50 50 50C 51.932999 50 53.5 48.432999 53.5 46.5C 53.5 44.567005 51.932999 43 50 43C 48.067005 43 46.5 44.567005 46.5 46.5ZM 57 57C 56.184055 53.800182 53.302212 51.560986 50 51.560986C 46.697788 51.560986 43.815948 53.800182 43 57M 14.5 46.5C 14.5 48.432999 16.067003 50 18 50C 19.932997 50 21.5 48.432999 21.5 46.5C 21.5 44.567005 19.932997 43 18 43C 16.067003 43 14.5 44.567005 14.5 46.5ZM 25 57C 24.184053 53.800182 21.302212 51.560986 18 51.560986C 14.697788 51.560986 11.815947 53.800182 11 57M 40.099998 52C 36.14254 53.332817 31.85746 53.332817 27.9 52M 42.495998 17C 49.912167 20.715904 54.066589 28.807884 52.764 37M 15.236 37C 13.933422 28.806824 18.089802 20.714184 25.507999 17"></path></g></g></g><g id="g-root-tx_promotes_w9pvzkwcua-stroke" data-item-order="0" transform="translate(38, 176)"></g><g id="g-root-tx_emphasiz_18fps1fzkwcnh-stroke" data-item-order="0" transform="translate(590, 182)"></g><g id="g-root-tx_decentra_1d15jxvzkl34b-stroke" data-item-order="0" transform="translate(308, 278)"></g><g id="g-root-tx_innovati_1q6dbg3zkwdfw-stroke" data-item-order="0" transform="translate(50, 380)"></g><g id="g-root-tx_transpar_1lr6aerzkwb2g-stroke" data-item-order="0" transform="translate(590, 374)"></g><g id="g-root-tx_fostersn_1q6dbg3zkwdfx-stroke" data-item-order="0" transform="translate(26, 416)"></g><g id="g-root-ic_idea_hssrarzknymm-stroke" data-item-order="0" transform="translate(224, 404)"><g id="ic_idea_hssrarzknymm-stroke" fill="none" stroke-linecap="round" stroke-linejoin="round" stroke-miterlimit="4" stroke="#000000" stroke-width="1"><g><path d="M 56 57L 56 55C 56.024189 53.420605 55.27803 51.928295 54.000004 51.000004C 51.330002 48.962002 45.459999 45 34 45C 22.540001 45 16.67 48.962002 14 51C 12.721972 51.928295 11.975817 53.420605 12 55.000004L 12 57M 34 57L 44.644001 46.355999M 34 57L 23.355999 46.355999M 37 54L 34 45L 31 54M 21.332001 47.001999L 19 54L 25 57M 46.667999 47.001999L 49 54L 43 57M 38 41L 30 41M 34 11L 34 13M 50 25L 48 25M 48 15L 46 17M 18 25L 20 25M 20 15L 22 17M 48 35L 46 33M 20 35L 22 33M 43 26C 43.018871 21.556046 39.791313 17.763567 35.401527 17.071566C 31.01174 16.379564 26.774008 18.995224 25.424856 23.229473C 24.075705 27.463722 26.019062 32.048851 30 34.024002L 30 36C 30 36.552284 30.447716 37 31 37L 37 37C 37.552284 37 38 36.552284 38 36L 38 34.024002C 41.054688 32.515297 42.9916 29.406937 43 26Z"></path></g></g></g><g id="g-root-ic_next_1430ncjzkuy32-stroke" data-item-order="0" transform="translate(476, 404)"><g id="ic_next_1430ncjzkuy32-stroke" fill="none" stroke-linecap="round" stroke-linejoin="round" stroke-miterlimit="4" stroke="#000000" stroke-width="1"><g><path d="M 48.060001 34.007999L 57.060001 41.007999L 48.060001 48.007999M 57.060001 41L 50.060001 41C 43.432583 41 38.060001 46.372585 38.060001 53L 38.059998 57M 12.059999 19.007999L 52.060001 19.007999M 18.060001 14.507999L 18.060001 14.507999M 18.060001 14.507999C 17.783857 14.507999 17.559999 14.731857 17.559999 15.007999C 17.559999 15.284142 17.783857 15.507999 18.060001 15.507999C 18.336143 15.507999 18.560001 15.284142 18.560001 15.007999C 18.560001 14.731857 18.336143 14.507999 18.060001 14.507999M 22.060001 14.507999L 22.060001 14.507999M 22.060001 14.507999C 21.783857 14.507999 21.560001 14.731857 21.560001 15.007999C 21.560001 15.284142 21.783857 15.507999 22.060001 15.507999C 22.336143 15.507999 22.560001 15.284142 22.560001 15.007999C 22.560001 14.731857 22.336143 14.507999 22.060001 14.507999M 26.059999 14.507999L 26.059999 14.507999M 26.059999 14.507999C 25.783857 14.507999 25.560001 14.731857 25.560001 15.007999C 25.560001 15.284142 25.783857 15.507999 26.059999 15.507999C 26.336142 15.507999 26.559999 15.284142 26.559999 15.007999C 26.559999 14.731857 26.336142 14.507999 26.059999 14.507999M 34.059998 43L 16.059999 43C 13.850861 43 12.059999 41.209137 12.059999 39L 12.059999 15C 12.059999 12.790861 13.850861 11 16.059999 11L 48.060001 11C 50.269138 11 52.060001 12.790861 52.060001 15L 52.060001 31"></path></g></g></g><g id="g-root-tx_ensureso_1hbcsabzkwbup-stroke" data-item-order="0" transform="translate(590, 410)"></g></g></g></svg>